<mxfile host="app.diagrams.net" agent="Mozilla/5.0 (Windows NT 10.0; Win64; x64) AppleWebKit/537.36 (KHTML, like Gecko) Chrome/129.0.0.0 Safari/537.36" version="24.7.17">
  <diagram name="Page-1" id="MA4pYXEUH4P55ol7idYU">
    <mxGraphModel dx="1114" dy="558" grid="1" gridSize="10" guides="1" tooltips="1" connect="1" arrows="1" fold="1" page="1" pageScale="1" pageWidth="850" pageHeight="1100" math="0" shadow="0">
      <root>
        <mxCell id="0" />
        <mxCell id="1" parent="0" />
        <mxCell id="tdM55CSppaVNfUNjvDvD-1" value="DP" style="rounded=1;whiteSpace=wrap;html=1;" vertex="1" parent="1">
          <mxGeometry x="70" y="100" width="160" height="90" as="geometry" />
        </mxCell>
        <mxCell id="tdM55CSppaVNfUNjvDvD-2" value="CODIGO_DP" style="ellipse;whiteSpace=wrap;html=1;" vertex="1" parent="1">
          <mxGeometry y="10" width="80" height="60" as="geometry" />
        </mxCell>
        <mxCell id="tdM55CSppaVNfUNjvDvD-6" value="RESPONSAVEL_DP" style="ellipse;whiteSpace=wrap;html=1;" vertex="1" parent="1">
          <mxGeometry x="180" y="10" width="80" height="60" as="geometry" />
        </mxCell>
        <mxCell id="tdM55CSppaVNfUNjvDvD-7" value="ENDEREÃ‡O" style="ellipse;whiteSpace=wrap;html=1;" vertex="1" parent="1">
          <mxGeometry x="270" y="20" width="70" height="40" as="geometry" />
        </mxCell>
        <mxCell id="tdM55CSppaVNfUNjvDvD-8" value="NOME" style="ellipse;whiteSpace=wrap;html=1;" vertex="1" parent="1">
          <mxGeometry x="80" y="10" width="90" height="60" as="geometry" />
        </mxCell>
        <mxCell id="tdM55CSppaVNfUNjvDvD-9" value="" style="endArrow=none;html=1;rounded=0;" edge="1" parent="1" target="tdM55CSppaVNfUNjvDvD-2">
          <mxGeometry width="50" height="50" relative="1" as="geometry">
            <mxPoint x="70" y="100" as="sourcePoint" />
            <mxPoint x="450" y="160" as="targetPoint" />
            <Array as="points" />
          </mxGeometry>
        </mxCell>
        <mxCell id="tdM55CSppaVNfUNjvDvD-10" value="" style="endArrow=none;html=1;rounded=0;exitX=0.394;exitY=0.033;exitDx=0;exitDy=0;exitPerimeter=0;" edge="1" parent="1" source="tdM55CSppaVNfUNjvDvD-1" target="tdM55CSppaVNfUNjvDvD-8">
          <mxGeometry width="50" height="50" relative="1" as="geometry">
            <mxPoint x="59" y="13" as="sourcePoint" />
            <mxPoint x="60" y="50" as="targetPoint" />
            <Array as="points" />
          </mxGeometry>
        </mxCell>
        <mxCell id="tdM55CSppaVNfUNjvDvD-11" value="" style="endArrow=none;html=1;rounded=0;" edge="1" parent="1" source="tdM55CSppaVNfUNjvDvD-1" target="tdM55CSppaVNfUNjvDvD-6">
          <mxGeometry width="50" height="50" relative="1" as="geometry">
            <mxPoint x="110" y="10" as="sourcePoint" />
            <mxPoint x="137" y="52" as="targetPoint" />
            <Array as="points" />
          </mxGeometry>
        </mxCell>
        <mxCell id="tdM55CSppaVNfUNjvDvD-12" value="" style="endArrow=none;html=1;rounded=0;exitX=0.981;exitY=0.111;exitDx=0;exitDy=0;exitPerimeter=0;" edge="1" parent="1" source="tdM55CSppaVNfUNjvDvD-1" target="tdM55CSppaVNfUNjvDvD-7">
          <mxGeometry width="50" height="50" relative="1" as="geometry">
            <mxPoint x="150" y="10" as="sourcePoint" />
            <mxPoint x="238" y="62" as="targetPoint" />
            <Array as="points" />
          </mxGeometry>
        </mxCell>
        <mxCell id="tdM55CSppaVNfUNjvDvD-13" value="RESPONSAVEL_DP" style="rounded=1;whiteSpace=wrap;html=1;" vertex="1" parent="1">
          <mxGeometry x="90" y="370" width="120" height="60" as="geometry" />
        </mxCell>
        <mxCell id="tdM55CSppaVNfUNjvDvD-14" value="CODIGO_DP" style="ellipse;whiteSpace=wrap;html=1;" vertex="1" parent="1">
          <mxGeometry x="40" y="450" width="80" height="60" as="geometry" />
        </mxCell>
        <mxCell id="tdM55CSppaVNfUNjvDvD-15" value="" style="endArrow=none;html=1;rounded=0;exitX=0.067;exitY=0.983;exitDx=0;exitDy=0;exitPerimeter=0;entryX=0.5;entryY=0;entryDx=0;entryDy=0;" edge="1" parent="1" target="tdM55CSppaVNfUNjvDvD-14" source="tdM55CSppaVNfUNjvDvD-13">
          <mxGeometry width="50" height="50" relative="1" as="geometry">
            <mxPoint x="89" y="430" as="sourcePoint" />
            <mxPoint x="490" y="587" as="targetPoint" />
            <Array as="points" />
          </mxGeometry>
        </mxCell>
        <mxCell id="tdM55CSppaVNfUNjvDvD-16" value="NOME" style="ellipse;whiteSpace=wrap;html=1;" vertex="1" parent="1">
          <mxGeometry x="190" y="450" width="80" height="60" as="geometry" />
        </mxCell>
        <mxCell id="tdM55CSppaVNfUNjvDvD-17" value="" style="endArrow=none;html=1;rounded=0;exitX=1;exitY=1;exitDx=0;exitDy=0;entryX=0.5;entryY=0;entryDx=0;entryDy=0;" edge="1" parent="1" target="tdM55CSppaVNfUNjvDvD-16" source="tdM55CSppaVNfUNjvDvD-13">
          <mxGeometry width="50" height="50" relative="1" as="geometry">
            <mxPoint x="169" y="430" as="sourcePoint" />
            <mxPoint x="170" y="480" as="targetPoint" />
            <Array as="points" />
          </mxGeometry>
        </mxCell>
        <mxCell id="tdM55CSppaVNfUNjvDvD-21" value="COORDENA" style="rhombus;whiteSpace=wrap;html=1;" vertex="1" parent="1">
          <mxGeometry x="70" y="220" width="160" height="110" as="geometry" />
        </mxCell>
        <mxCell id="tdM55CSppaVNfUNjvDvD-22" value="" style="endArrow=none;html=1;rounded=0;exitX=0.5;exitY=0;exitDx=0;exitDy=0;entryX=0.5;entryY=1;entryDx=0;entryDy=0;" edge="1" parent="1" source="tdM55CSppaVNfUNjvDvD-21" target="tdM55CSppaVNfUNjvDvD-1">
          <mxGeometry width="50" height="50" relative="1" as="geometry">
            <mxPoint x="237" y="120" as="sourcePoint" />
            <mxPoint x="296" y="67" as="targetPoint" />
            <Array as="points" />
          </mxGeometry>
        </mxCell>
        <mxCell id="tdM55CSppaVNfUNjvDvD-23" value="" style="endArrow=none;html=1;rounded=0;entryX=0.5;entryY=0;entryDx=0;entryDy=0;exitX=0.5;exitY=1;exitDx=0;exitDy=0;" edge="1" parent="1" source="tdM55CSppaVNfUNjvDvD-21" target="tdM55CSppaVNfUNjvDvD-13">
          <mxGeometry width="50" height="50" relative="1" as="geometry">
            <mxPoint x="160" y="230" as="sourcePoint" />
            <mxPoint x="160" y="200" as="targetPoint" />
            <Array as="points" />
          </mxGeometry>
        </mxCell>
        <mxCell id="tdM55CSppaVNfUNjvDvD-24" value="OCORRENCIA" style="rounded=1;whiteSpace=wrap;html=1;" vertex="1" parent="1">
          <mxGeometry x="460" y="105" width="160" height="90" as="geometry" />
        </mxCell>
        <mxCell id="tdM55CSppaVNfUNjvDvD-25" value="CODIGO_DP" style="ellipse;whiteSpace=wrap;html=1;" vertex="1" parent="1">
          <mxGeometry x="370" width="80" height="60" as="geometry" />
        </mxCell>
        <mxCell id="tdM55CSppaVNfUNjvDvD-26" value="DATA" style="ellipse;whiteSpace=wrap;html=1;" vertex="1" parent="1">
          <mxGeometry x="540" width="80" height="60" as="geometry" />
        </mxCell>
        <mxCell id="tdM55CSppaVNfUNjvDvD-27" value="CODIGO_IBGE" style="ellipse;whiteSpace=wrap;html=1;" vertex="1" parent="1">
          <mxGeometry x="620" y="10" width="100" height="50" as="geometry" />
        </mxCell>
        <mxCell id="tdM55CSppaVNfUNjvDvD-28" value="QNT" style="ellipse;whiteSpace=wrap;html=1;" vertex="1" parent="1">
          <mxGeometry x="450" width="90" height="60" as="geometry" />
        </mxCell>
        <mxCell id="tdM55CSppaVNfUNjvDvD-29" value="" style="endArrow=none;html=1;rounded=0;entryX=0.5;entryY=1;entryDx=0;entryDy=0;exitX=0.025;exitY=0.1;exitDx=0;exitDy=0;exitPerimeter=0;" edge="1" parent="1" target="tdM55CSppaVNfUNjvDvD-25" source="tdM55CSppaVNfUNjvDvD-24">
          <mxGeometry width="50" height="50" relative="1" as="geometry">
            <mxPoint x="450" y="100" as="sourcePoint" />
            <mxPoint x="440.0049376635356" y="77.35987532707124" as="targetPoint" />
            <Array as="points" />
          </mxGeometry>
        </mxCell>
        <mxCell id="tdM55CSppaVNfUNjvDvD-30" value="" style="endArrow=none;html=1;rounded=0;entryX=0.5;entryY=1;entryDx=0;entryDy=0;exitX=0.313;exitY=0.011;exitDx=0;exitDy=0;exitPerimeter=0;" edge="1" parent="1" source="tdM55CSppaVNfUNjvDvD-24" target="tdM55CSppaVNfUNjvDvD-28">
          <mxGeometry width="50" height="50" relative="1" as="geometry">
            <mxPoint x="513" y="100" as="sourcePoint" />
            <mxPoint x="514.816724739971" y="79.1596167347757" as="targetPoint" />
            <Array as="points" />
          </mxGeometry>
        </mxCell>
        <mxCell id="tdM55CSppaVNfUNjvDvD-31" value="" style="endArrow=none;html=1;rounded=0;entryX=0.5;entryY=1;entryDx=0;entryDy=0;entryPerimeter=0;exitX=0.663;exitY=-0.044;exitDx=0;exitDy=0;exitPerimeter=0;" edge="1" parent="1" source="tdM55CSppaVNfUNjvDvD-24" target="tdM55CSppaVNfUNjvDvD-26">
          <mxGeometry width="50" height="50" relative="1" as="geometry">
            <mxPoint x="495.96" y="19.27" as="sourcePoint" />
            <mxPoint x="580" y="70" as="targetPoint" />
            <Array as="points" />
          </mxGeometry>
        </mxCell>
        <mxCell id="tdM55CSppaVNfUNjvDvD-32" value="" style="endArrow=none;html=1;rounded=0;exitX=0.95;exitY=0.033;exitDx=0;exitDy=0;exitPerimeter=0;entryX=0.5;entryY=1;entryDx=0;entryDy=0;" edge="1" parent="1" source="tdM55CSppaVNfUNjvDvD-24" target="tdM55CSppaVNfUNjvDvD-27">
          <mxGeometry width="50" height="50" relative="1" as="geometry">
            <mxPoint x="535.96" y="19.27" as="sourcePoint" />
            <mxPoint x="670" y="70" as="targetPoint" />
            <Array as="points" />
          </mxGeometry>
        </mxCell>
        <mxCell id="tdM55CSppaVNfUNjvDvD-33" value="CODIGO_IBGE" style="ellipse;whiteSpace=wrap;html=1;" vertex="1" parent="1">
          <mxGeometry x="425" y="441" width="90" height="59" as="geometry" />
        </mxCell>
        <mxCell id="tdM55CSppaVNfUNjvDvD-34" value="" style="endArrow=none;html=1;rounded=0;exitX=0;exitY=1;exitDx=0;exitDy=0;entryX=0.5;entryY=0;entryDx=0;entryDy=0;" edge="1" parent="1" target="tdM55CSppaVNfUNjvDvD-33" source="tdM55CSppaVNfUNjvDvD-37">
          <mxGeometry width="50" height="50" relative="1" as="geometry">
            <mxPoint x="448" y="420" as="sourcePoint" />
            <mxPoint x="840" y="578" as="targetPoint" />
            <Array as="points" />
          </mxGeometry>
        </mxCell>
        <mxCell id="tdM55CSppaVNfUNjvDvD-35" value="NOME" style="ellipse;whiteSpace=wrap;html=1;" vertex="1" parent="1">
          <mxGeometry x="515" y="441" width="80" height="60" as="geometry" />
        </mxCell>
        <mxCell id="tdM55CSppaVNfUNjvDvD-36" value="" style="endArrow=none;html=1;rounded=0;exitX=0.5;exitY=1;exitDx=0;exitDy=0;entryX=0.5;entryY=0;entryDx=0;entryDy=0;" edge="1" parent="1" target="tdM55CSppaVNfUNjvDvD-35" source="tdM55CSppaVNfUNjvDvD-37">
          <mxGeometry width="50" height="50" relative="1" as="geometry">
            <mxPoint x="560" y="421" as="sourcePoint" />
            <mxPoint x="520" y="471" as="targetPoint" />
            <Array as="points" />
          </mxGeometry>
        </mxCell>
        <mxCell id="tdM55CSppaVNfUNjvDvD-37" value="MUNICIPIO" style="rounded=1;whiteSpace=wrap;html=1;" vertex="1" parent="1">
          <mxGeometry x="480" y="360" width="120" height="60" as="geometry" />
        </mxCell>
        <mxCell id="tdM55CSppaVNfUNjvDvD-38" value="REGIÃƒO" style="ellipse;whiteSpace=wrap;html=1;" vertex="1" parent="1">
          <mxGeometry x="595" y="440" width="80" height="60" as="geometry" />
        </mxCell>
        <mxCell id="tdM55CSppaVNfUNjvDvD-39" value="" style="endArrow=none;html=1;rounded=0;exitX=1;exitY=1;exitDx=0;exitDy=0;entryX=0.5;entryY=0;entryDx=0;entryDy=0;" edge="1" parent="1" source="tdM55CSppaVNfUNjvDvD-37" target="tdM55CSppaVNfUNjvDvD-38">
          <mxGeometry width="50" height="50" relative="1" as="geometry">
            <mxPoint x="510" y="430" as="sourcePoint" />
            <mxPoint x="520" y="451" as="targetPoint" />
            <Array as="points" />
          </mxGeometry>
        </mxCell>
        <mxCell id="tdM55CSppaVNfUNjvDvD-40" value="REGISTRA" style="rhombus;whiteSpace=wrap;html=1;" vertex="1" parent="1">
          <mxGeometry x="270" y="110" width="140" height="80" as="geometry" />
        </mxCell>
        <mxCell id="tdM55CSppaVNfUNjvDvD-41" value="" style="endArrow=none;html=1;rounded=0;exitX=1;exitY=0.5;exitDx=0;exitDy=0;entryX=0;entryY=0.5;entryDx=0;entryDy=0;" edge="1" parent="1" source="tdM55CSppaVNfUNjvDvD-40" target="tdM55CSppaVNfUNjvDvD-24">
          <mxGeometry width="50" height="50" relative="1" as="geometry">
            <mxPoint x="400" y="260" as="sourcePoint" />
            <mxPoint x="450" y="210" as="targetPoint" />
          </mxGeometry>
        </mxCell>
        <mxCell id="tdM55CSppaVNfUNjvDvD-42" value="" style="endArrow=none;html=1;rounded=0;exitX=1;exitY=0.5;exitDx=0;exitDy=0;entryX=0;entryY=0.5;entryDx=0;entryDy=0;" edge="1" parent="1" source="tdM55CSppaVNfUNjvDvD-1" target="tdM55CSppaVNfUNjvDvD-40">
          <mxGeometry width="50" height="50" relative="1" as="geometry">
            <mxPoint x="410" y="170" as="sourcePoint" />
            <mxPoint x="460" y="175" as="targetPoint" />
          </mxGeometry>
        </mxCell>
        <mxCell id="tdM55CSppaVNfUNjvDvD-43" value="POSSUI_REGISTROS_DE" style="rhombus;whiteSpace=wrap;html=1;" vertex="1" parent="1">
          <mxGeometry x="440" y="220" width="200" height="100" as="geometry" />
        </mxCell>
        <mxCell id="tdM55CSppaVNfUNjvDvD-44" value="" style="endArrow=none;html=1;rounded=0;entryX=0.5;entryY=1;entryDx=0;entryDy=0;exitX=0.5;exitY=0;exitDx=0;exitDy=0;" edge="1" parent="1" source="tdM55CSppaVNfUNjvDvD-43" target="tdM55CSppaVNfUNjvDvD-24">
          <mxGeometry width="50" height="50" relative="1" as="geometry">
            <mxPoint x="576" y="111" as="sourcePoint" />
            <mxPoint x="590" y="70" as="targetPoint" />
            <Array as="points" />
          </mxGeometry>
        </mxCell>
        <mxCell id="tdM55CSppaVNfUNjvDvD-45" value="" style="endArrow=none;html=1;rounded=0;entryX=0.5;entryY=0;entryDx=0;entryDy=0;exitX=0.5;exitY=1;exitDx=0;exitDy=0;" edge="1" parent="1" source="tdM55CSppaVNfUNjvDvD-43" target="tdM55CSppaVNfUNjvDvD-37">
          <mxGeometry width="50" height="50" relative="1" as="geometry">
            <mxPoint x="560" y="230" as="sourcePoint" />
            <mxPoint x="550" y="205" as="targetPoint" />
            <Array as="points" />
          </mxGeometry>
        </mxCell>
      </root>
    </mxGraphModel>
  </diagram>
</mxfile>
